<?xml version="1.0" standalone="no"?>
<!DOCTYPE svg PUBLIC "-//W3C//DTD SVG 20010904//EN"
 "http://www.w3.org/TR/2001/REC-SVG-20010904/DTD/svg10.dtd">
<svg version="1.0" xmlns="http://www.w3.org/2000/svg"
 width="1344.000000pt" height="1344.000000pt" viewBox="0 0 1344.000000 1344.000000"
 preserveAspectRatio="xMidYMid meet">
<metadata>
Created by potrace 1.11, written by Peter Selinger 2001-2013
</metadata>
<g transform="translate(0.000000,1344.000000) scale(0.100000,-0.100000)"
fill="#000000" stroke="none">
<path d="M12938 10217 c-65 -22 -135 -69 -170 -113 -55 -69 -240 -224 -267
-224 -5 0 -11 -4 -13 -8 -8 -22 -313 -179 -383 -198 -5 -1 -41 -14 -80 -28
-65 -23 -227 -69 -285 -80 -14 -3 -34 -7 -45 -9 -11 -3 -40 -8 -65 -11 -25 -3
-56 -8 -70 -11 -14 -3 -47 -7 -75 -10 -27 -3 -68 -8 -90 -11 -22 -3 -56 -7
-75 -9 -50 -4 -167 -15 -225 -21 -27 -3 -79 -7 -115 -10 -69 -4 -153 -11 -260
-20 -77 -7 -127 -11 -235 -18 -44 -4 -100 -8 -125 -11 -25 -3 -72 -7 -105 -10
-76 -6 -171 -15 -210 -19 -16 -2 -64 -7 -105 -11 -41 -4 -88 -9 -105 -11 -16
-2 -52 -6 -80 -9 -27 -3 -66 -7 -85 -10 -19 -2 -55 -7 -80 -10 -25 -2 -54 -7
-65 -9 -19 -4 -62 -10 -150 -21 -22 -3 -50 -7 -62 -9 -11 -3 -43 -8 -70 -12
-26 -3 -57 -8 -68 -11 -11 -2 -37 -6 -58 -9 -21 -3 -44 -7 -50 -8 -14 -3 -69
-14 -112 -22 -16 -3 -43 -7 -60 -10 -16 -3 -37 -7 -45 -10 -8 -3 -31 -8 -50
-10 -19 -3 -53 -10 -75 -15 -41 -12 -63 -16 -105 -25 -134 -27 -533 -138 -622
-173 -16 -6 -28 -8 -28 -5 0 2 -13 -2 -30 -11 -16 -8 -32 -15 -35 -15 -20 -1
-335 -119 -380 -143 -22 -12 -40 -20 -40 -18 0 20 -451 -212 -595 -306 -19
-13 -42 -28 -50 -33 -51 -33 -148 -104 -230 -169 -91 -71 -340 -315 -406 -397
-59 -73 -147 -194 -169 -232 -31 -53 -82 -140 -92 -157 -54 -92 -132 -281
-174 -425 -34 -116 -35 -120 -43 -176 -4 -22 -8 -46 -11 -54 -6 -22 -15 -86
-24 -163 -10 -95 -3 -414 10 -447 1 -3 3 -9 4 -15 43 -264 207 -486 467 -634
l58 -32 -23 -32 c-12 -18 -24 -34 -27 -37 -40 -39 -169 -285 -218 -415 -6 -16
-17 -43 -23 -60 -7 -16 -13 -34 -15 -40 -1 -5 -13 -46 -27 -90 -32 -104 -50
-175 -51 -212 -1 -13 -3 -23 -6 -23 -3 0 -7 -12 -8 -27 -1 -16 -4 -39 -7 -53
-3 -14 -8 -47 -11 -75 -3 -27 -7 -56 -10 -64 -23 -72 -23 -674 1 -790 2 -14 7
-50 9 -80 3 -31 10 -81 16 -111 6 -30 13 -68 15 -85 9 -64 27 -135 33 -135 4
0 8 26 8 58 1 53 10 162 19 222 2 14 6 45 9 70 3 25 8 54 10 65 2 11 7 40 11
65 5 25 10 52 11 60 3 17 15 77 19 100 2 8 4 15 5 15 1 0 3 7 5 15 2 8 6 26 9
40 9 45 57 214 72 260 9 25 17 52 19 60 5 23 92 246 107 272 6 13 13 28 14 34
3 20 141 291 154 304 3 3 16 25 29 50 19 34 121 199 136 218 2 2 38 -32 81
-75 77 -77 162 -143 183 -143 6 0 11 -4 11 -8 0 -10 123 -72 211 -105 90 -35
103 -40 114 -43 6 -1 44 -11 85 -23 72 -20 90 -24 155 -36 17 -3 39 -7 51 -10
73 -16 301 -39 394 -39 70 0 271 17 360 30 34 5 58 8 130 18 85 12 121 17 210
32 41 7 183 34 205 38 56 12 172 38 190 42 11 3 29 7 40 9 11 3 50 13 88 24
37 11 68 20 70 19 1 0 20 5 42 11 22 6 43 11 47 11 4 1 24 8 44 16 20 8 39 13
42 10 3 -3 10 -2 16 3 6 4 49 21 96 36 258 84 505 187 760 315 168 84 205 104
208 113 2 4 8 7 14 7 6 0 55 27 110 60 54 33 101 60 103 60 3 0 13 6 22 14 10
8 83 58 163 111 80 54 147 101 150 104 3 4 21 18 40 31 44 30 233 180 284 225
251 222 514 486 646 648 14 17 32 38 40 47 42 43 226 282 309 400 32 47 68 96
78 110 59 76 233 364 382 630 55 98 192 379 255 524 8 17 25 56 38 86 14 30
51 123 83 205 32 83 61 159 66 170 23 54 137 398 155 468 1 4 2 8 4 10 1 1 3
9 5 17 2 8 18 67 35 130 30 113 35 132 44 178 3 12 8 27 11 32 4 6 8 23 10 38
2 15 13 72 24 127 23 116 20 168 -14 234 -73 144 -292 218 -467 158z m128
-319 c-8 -34 -8 -37 -21 -103 -5 -22 -9 -42 -10 -45 0 -3 -5 -23 -10 -45 -11
-52 -8 -42 -45 -180 -17 -66 -33 -127 -35 -135 -2 -8 -10 -34 -19 -58 -8 -23
-15 -45 -15 -47 0 -3 -12 -45 -27 -93 -15 -48 -29 -89 -29 -92 -1 -3 -4 -12
-8 -20 -3 -8 -22 -64 -42 -123 -20 -60 -43 -120 -51 -135 -8 -15 -14 -32 -14
-38 0 -10 -23 -69 -69 -179 -5 -11 -19 -45 -31 -75 -72 -176 -351 -735 -379
-760 -3 -3 -13 -19 -22 -35 -23 -43 -43 -79 -49 -85 -3 -3 -14 -21 -24 -40
-25 -45 -201 -311 -244 -370 -19 -25 -43 -58 -55 -74 -39 -53 -162 -212 -175
-226 -7 -8 -22 -26 -33 -40 -139 -166 -186 -217 -364 -395 -163 -163 -292
-279 -445 -399 -47 -37 -92 -73 -100 -79 -8 -7 -37 -28 -65 -47 -27 -19 -52
-37 -55 -40 -3 -3 -32 -23 -65 -45 -33 -22 -62 -42 -65 -45 -3 -3 -14 -10 -25
-17 -11 -7 -63 -39 -115 -71 -199 -124 -466 -263 -675 -352 -11 -5 -36 -15
-55 -24 -119 -50 -377 -144 -419 -152 -14 -3 -28 -7 -32 -10 -11 -6 -209 -65
-239 -71 -14 -2 -50 -11 -80 -21 -30 -9 -58 -15 -61 -14 -3 0 -29 -5 -57 -13
-29 -7 -52 -11 -52 -9 0 3 -9 0 -19 -6 -11 -5 -35 -12 -53 -14 -44 -6 -94 -15
-142 -26 -22 -5 -43 -7 -47 -4 -4 2 -10 0 -14 -6 -4 -6 -10 -8 -13 -6 -4 2
-30 0 -57 -5 -28 -6 -66 -12 -85 -14 -81 -9 -127 -15 -163 -21 -21 -3 -60 -8
-85 -10 -26 -2 -67 -6 -92 -9 -56 -6 -205 -6 -245 0 -28 4 -73 10 -150 20
-209 25 -464 117 -581 210 -57 45 -134 127 -134 142 0 7 -3 13 -8 13 -8 0 -42
73 -42 91 0 21 343 355 474 461 12 10 28 24 36 32 8 8 42 36 75 63 33 26 69
56 80 65 11 10 83 65 160 123 77 58 146 110 153 116 78 65 626 436 847 574 61
37 122 76 137 86 15 10 42 27 60 37 18 11 109 65 201 121 93 55 170 101 172
101 3 0 28 15 57 33 29 19 82 50 118 69 36 20 90 51 120 68 30 18 84 48 120
68 189 101 262 141 278 154 6 6 12 7 12 3 0 -5 8 -1 18 7 9 9 27 19 40 23 13
4 21 9 19 12 -3 3 -52 -14 -109 -37 -57 -23 -112 -43 -122 -46 -11 -2 -24 -8
-30 -14 -5 -5 -16 -10 -23 -10 -18 0 -608 -244 -803 -333 -30 -14 -80 -35
-110 -48 -30 -13 -58 -27 -61 -32 -3 -5 -8 -8 -10 -7 -2 1 -15 -3 -29 -8 -14
-6 -32 -13 -40 -16 -8 -3 -22 -10 -30 -15 -8 -5 -35 -18 -60 -29 -75 -33 -264
-122 -285 -134 -11 -7 -47 -24 -80 -40 -33 -16 -67 -32 -75 -37 -8 -5 -53 -28
-100 -52 -47 -23 -134 -69 -195 -102 -60 -33 -123 -67 -140 -75 -41 -21 -264
-150 -360 -209 -11 -7 -51 -31 -90 -55 -38 -23 -94 -59 -122 -80 -29 -21 -53
-36 -53 -33 0 3 -12 -6 -27 -20 -15 -14 -31 -25 -36 -25 -7 0 -65 -40 -112
-78 -5 -4 -26 -19 -45 -32 -47 -33 -223 -177 -285 -234 -27 -25 -56 -45 -63
-46 -7 0 -30 11 -52 25 -22 14 -42 25 -46 25 -13 0 -121 92 -154 131 -33 39
-90 137 -99 170 -28 100 -35 159 -35 319 -1 229 12 325 70 525 81 276 233 552
420 765 115 130 346 336 456 406 24 16 48 33 53 39 28 31 491 285 519 285 2 0
33 13 68 29 84 38 263 106 264 101 0 -3 7 0 15 6 11 9 304 110 344 118 6 2 30
9 55 16 25 7 50 14 55 15 6 2 55 15 110 30 55 15 105 28 110 30 6 1 24 5 40 9
58 14 160 38 180 42 11 3 35 7 54 10 19 2 37 6 41 9 4 2 22 7 41 10 41 7 125
22 158 29 12 3 43 8 68 11 24 2 48 7 52 9 4 3 34 8 66 11 33 4 64 9 68 12 4 3
25 6 45 9 20 2 57 6 82 9 25 4 54 8 65 9 11 2 40 6 65 9 25 4 65 9 90 12 56 6
124 15 170 21 19 3 58 7 85 9 68 4 184 16 218 21 15 2 69 7 120 10 50 2 103 6
117 8 28 4 148 15 230 21 30 2 91 7 135 10 138 12 148 13 235 19 47 4 105 8
130 11 25 2 74 7 110 10 160 15 242 24 315 35 33 5 78 12 100 15 265 40 533
122 785 243 87 42 281 155 303 177 9 8 18 15 22 15 4 0 13 6 21 13 7 6 37 30
65 52 28 22 83 72 123 112 39 39 73 72 75 72 2 1 0 -14 -3 -31z"/>
<path d="M250 8170 c-79 -24 -115 -45 -168 -98 -87 -88 -98 -170 -51 -362 11
-47 22 -94 25 -105 8 -39 56 -210 64 -230 5 -11 19 -54 31 -95 12 -41 30 -94
40 -117 11 -24 19 -47 19 -51 0 -11 101 -263 143 -356 34 -77 181 -368 215
-428 12 -21 31 -55 43 -75 12 -21 27 -45 35 -54 8 -9 12 -18 9 -21 -3 -3 4
-13 15 -23 11 -10 20 -23 20 -28 0 -6 11 -25 25 -43 14 -18 25 -37 25 -42 0
-6 3 -12 8 -14 10 -4 72 -97 72 -107 0 -5 4 -11 8 -13 8 -3 60 -70 92 -118 8
-12 21 -28 28 -36 7 -7 28 -33 47 -59 19 -25 47 -60 63 -77 15 -18 45 -52 66
-77 50 -58 341 -346 390 -386 20 -16 47 -39 60 -50 13 -11 38 -32 56 -47 18
-16 35 -28 39 -28 4 0 13 -9 21 -20 8 -11 18 -20 22 -20 4 0 34 -20 65 -44 76
-57 260 -176 273 -176 5 0 10 -4 10 -9 0 -5 12 -14 28 -20 15 -6 43 -21 62
-32 90 -56 458 -229 520 -245 8 -2 74 -24 145 -50 72 -25 138 -47 147 -49 9
-2 61 -16 115 -30 117 -32 142 -38 166 -39 9 0 17 -3 17 -6 0 -3 8 -6 18 -6 9
0 53 -8 97 -17 83 -17 131 -25 200 -33 22 -3 51 -7 65 -9 14 -3 52 -7 86 -11
33 -3 78 -8 100 -10 56 -7 190 -7 254 0 66 6 186 24 218 31 23 5 46 10 97 21
17 3 35 9 40 12 6 4 16 8 23 9 32 7 61 18 137 50 54 23 167 90 202 120 15 14
47 42 69 63 l42 39 31 -50 c17 -28 31 -54 31 -59 0 -5 4 -10 8 -12 12 -5 126
-242 162 -338 18 -47 36 -94 41 -105 4 -11 13 -40 20 -65 6 -25 17 -63 23 -85
13 -39 31 -114 41 -167 3 -16 7 -38 10 -50 10 -48 13 -66 21 -123 9 -76 12
-103 13 -139 1 -33 12 -29 16 6 3 26 14 100 20 138 16 95 21 331 11 486 -10
165 -54 402 -90 489 -8 19 -13 35 -11 35 7 0 -65 163 -109 245 l-43 81 66 39
c74 45 182 147 227 215 105 156 141 410 98 685 -25 162 -88 347 -166 488 -21
39 -38 71 -38 73 0 7 -65 99 -72 102 -4 2 -8 8 -8 13 0 10 -3 14 -86 114 -226
273 -558 501 -959 660 -66 26 -129 51 -140 57 -12 5 -27 10 -35 11 -8 2 -19 5
-25 8 -12 8 -229 76 -270 85 -16 4 -34 10 -40 14 -5 4 -17 7 -25 8 -8 0 -71
15 -140 32 -69 18 -134 33 -145 35 -11 1 -40 7 -65 13 -25 6 -67 14 -95 18
-27 3 -53 8 -56 10 -4 2 -24 6 -45 9 -22 3 -49 8 -61 10 -12 3 -46 8 -75 11
-29 3 -55 7 -58 9 -3 2 -33 6 -65 10 -33 3 -67 8 -75 10 -8 2 -46 7 -85 11
-38 3 -79 8 -90 10 -11 3 -42 7 -70 9 -27 2 -81 7 -120 11 -38 3 -88 7 -110 9
-22 2 -71 6 -110 10 -38 3 -95 7 -125 10 -80 7 -186 16 -255 20 -104 7 -180
14 -210 19 -17 3 -59 8 -95 11 -36 4 -67 8 -70 10 -3 2 -29 6 -58 10 -29 3
-83 15 -120 26 -37 11 -76 21 -87 24 -11 3 -29 9 -40 14 -11 4 -49 20 -85 35
-77 32 -210 106 -210 118 0 4 -7 8 -15 8 -8 0 -56 41 -107 90 -85 84 -157 132
-222 146 -53 13 -164 9 -216 -6z m151 -327 c60 -66 258 -213 288 -213 6 0 11
-4 11 -8 0 -13 161 -85 282 -126 108 -37 178 -57 253 -71 22 -5 47 -10 55 -12
8 -1 35 -5 60 -8 25 -2 56 -6 70 -9 27 -5 103 -12 215 -21 39 -3 90 -8 115
-11 25 -2 74 -7 110 -9 36 -3 94 -8 130 -10 36 -3 97 -8 135 -10 74 -5 153
-12 220 -20 22 -2 67 -7 100 -10 33 -3 76 -8 96 -11 20 -2 58 -7 85 -10 27 -3
60 -6 74 -8 14 -2 48 -6 75 -10 28 -3 61 -9 75 -11 14 -3 41 -7 60 -10 29 -4
125 -20 285 -50 17 -3 41 -8 55 -12 39 -10 43 -11 70 -16 14 -3 54 -13 90 -22
36 -9 74 -19 85 -21 11 -2 50 -13 88 -25 37 -11 73 -22 80 -23 7 -2 19 -6 27
-9 14 -5 89 -30 100 -32 6 -2 4 -1 165 -62 120 -46 314 -136 370 -173 17 -11
39 -24 51 -29 19 -9 145 -93 171 -116 7 -5 27 -21 44 -35 69 -53 194 -178 254
-253 53 -66 169 -247 170 -266 1 -3 8 -19 17 -36 8 -16 21 -48 28 -70 7 -22
18 -46 24 -54 6 -8 10 -17 9 -20 -1 -3 2 -24 8 -46 31 -114 47 -246 44 -360
-4 -115 -17 -182 -47 -243 -25 -50 -109 -134 -165 -166 l-40 -23 -34 31 c-19
18 -68 59 -109 91 -41 33 -81 66 -88 73 -7 6 -17 12 -21 12 -4 0 -16 8 -27 18
-32 28 -82 62 -92 62 -5 0 -17 9 -27 20 -10 11 -21 20 -26 20 -4 0 -50 27
-102 60 -53 33 -98 60 -102 60 -3 0 -24 11 -46 25 -67 43 -473 244 -574 284
-11 5 -40 18 -65 29 -106 48 -163 72 -172 72 -5 0 -27 9 -49 19 -22 11 -53 23
-69 26 -17 4 -30 11 -30 16 0 5 -3 8 -7 7 -5 0 -15 1 -23 5 -12 4 -197 71
-290 105 -165 59 -168 57 -25 -18 55 -29 105 -56 110 -60 6 -4 35 -21 65 -37
47 -26 190 -109 302 -176 119 -71 446 -286 567 -374 73 -53 116 -87 119 -95 2
-4 9 -8 15 -8 7 0 23 -10 37 -22 14 -13 41 -35 62 -50 20 -15 42 -33 50 -40 7
-8 37 -32 65 -54 76 -60 173 -147 275 -244 97 -93 98 -99 57 -168 -27 -44
-116 -132 -135 -132 -8 0 -14 -3 -14 -8 0 -18 -176 -84 -273 -103 -130 -25
-313 -32 -437 -17 -105 13 -287 42 -340 53 -14 3 -36 8 -50 10 -14 2 -79 17
-145 35 -66 17 -131 33 -144 36 -14 3 -28 7 -33 10 -4 3 -16 7 -25 9 -41 8
-257 87 -358 130 -188 80 -494 242 -503 267 -2 4 -10 8 -17 8 -8 0 -20 6 -27
13 -7 6 -33 25 -58 42 -114 76 -331 247 -352 279 -4 6 -8 8 -8 4 0 -10 -250
240 -324 325 -133 151 -406 526 -406 557 0 6 -4 10 -9 10 -5 0 -11 8 -14 18
-4 9 -18 37 -33 62 -67 114 -111 195 -172 320 -37 74 -67 137 -67 140 -1 3 -9
23 -19 45 -23 53 -98 237 -101 250 -1 6 -7 24 -14 40 -16 38 -100 297 -106
321 -2 11 -13 54 -25 96 -11 43 -23 87 -25 98 -2 12 -6 29 -9 38 -3 9 -8 29
-11 45 -12 65 -16 81 -21 89 -12 19 15 6 37 -19z"/>
</g>
</svg>
