<svg width="198" height="24" viewBox="0 0 198 24" fill="none" xmlns="http://www.w3.org/2000/svg">
<path d="M41.2417 1.05691C41.1176 1.01898 40.9864 0.999713 40.8542 1C40.476 1 40.1089 1.1579 39.8935 1.43269C39.8571 1.47883 38.9816 2.5703 36.8109 3.07989C36.0316 3.26189 34.8845 3.35109 33.5555 3.45362C30.7437 3.66945 26.8935 3.9668 23.3419 5.48224C17.9948 7.76463 17.432 11.9003 17.8812 13.7664C18.0953 14.6543 18.7636 15.2357 19.4658 15.5951C17.1815 18.6388 18.386 23 18.386 23C18.386 23 18.307 19.8523 20.3826 16.886C20.4191 16.9331 20.4481 16.9803 20.49 17.027C21.2274 17.8631 22.5231 18.3327 24.3409 18.423C24.3968 18.4255 24.4529 18.4248 24.5087 18.4209C39.4647 17.3141 41.9575 2.21092 41.9809 2.05815C42.0126 1.84635 41.9567 1.6319 41.8224 1.44997C41.688 1.26805 41.4833 1.12945 41.2417 1.05691ZM24.4093 17.4802C22.0998 17.3658 21.3397 16.5999 21.1083 15.9709C21.2409 15.8202 21.373 15.6689 21.5186 15.5218C24.7623 12.2505 31.1836 8.97914 31.1836 8.97914C31.1836 8.97914 23.2549 11.8521 20.1476 14.8333C19.67 14.6097 19.1511 14.2252 18.9956 13.5819C18.6877 12.3002 18.8586 8.45776 23.8614 6.32199C28.8624 4.18725 34.4471 4.61532 37.1188 3.98833C39.7917 3.36186 40.8536 1.93818 40.8536 1.93818C40.8536 1.93818 38.6268 16.4287 24.4093 17.4802ZM17.1365 16.4753C17.4604 15.1265 17.0612 12.1438 13.2283 10.5064C10.746 9.44823 8.0823 9.24162 6.13744 9.09244C5.25139 9.02323 4.48567 8.96427 3.98773 8.84789C2.65681 8.53619 2.11445 7.87793 2.10149 7.86306C1.9649 7.67976 1.75685 7.54086 1.51199 7.4695C1.26713 7.39814 1.00024 7.39863 0.755765 7.47087C0.511362 7.54308 0.30404 7.68258 0.168229 7.86621C0.0324186 8.04983 -0.023709 8.26653 0.00916764 8.48031C0.0252102 8.58746 1.76275 19.1099 12.2342 19.8866C12.2902 19.8909 12.3466 19.8916 12.4027 19.8887C13.7527 19.821 14.7264 19.4601 15.2953 18.8151C15.307 18.8023 15.3157 18.788 15.3268 18.7746C16.5867 20.6925 16.6021 22.6883 16.6021 22.6883C16.6021 22.6883 17.2439 19.9281 15.9358 17.8954C16.4701 17.6114 16.9711 17.1577 17.1365 16.4753ZM16.0221 16.2892C15.9216 16.7045 15.5995 16.9583 15.2891 17.1136C13.1653 15.1122 8.66723 13.7075 8.66723 13.7075C8.66723 13.7075 12.0171 15.3618 14.3 17.5376C14.408 17.6401 14.5061 17.7462 14.6036 17.8524C14.4747 18.2907 13.9884 18.8628 12.3348 18.9449C2.65373 18.2281 1.13647 8.36137 1.13647 8.36137C1.13647 8.36137 1.86085 9.33083 3.67922 9.75736C5.49882 10.1829 9.30215 9.89271 12.7093 11.3466C16.1147 12.8011 16.2319 15.4172 16.0221 16.2892Z" fill="url(#paint0_linear)"/>
<path d="M54.792 18H56.448L50.16 1.464H48.48L42.168 18H43.848L45.504 13.608H53.136L54.792 18ZM46.056 12.192L49.32 3.576L52.584 12.192H46.056ZM59.409 6.792V13.992C59.409 15.912 58.593 16.632 57.369 16.632H57.153V18H57.657C59.625 18 60.921 16.608 60.921 14.016V8.256H65.625V18H67.161V6.792H59.409ZM78.2143 6.792H69.5743V8.256H73.1263V18H74.6623V8.256H78.2143V6.792ZM89.6556 6.792V8.952C88.8156 7.44 87.0876 6.552 85.1916 6.552C82.0476 6.552 79.5036 8.976 79.5036 12.384C79.5036 15.792 82.0716 18.24 85.1916 18.24C87.0636 18.24 88.8156 17.352 89.6556 15.816V18H91.1916V6.792H89.6556ZM85.3116 16.776C82.9596 16.776 81.0396 14.856 81.0396 12.36C81.0396 9.888 82.9596 8.016 85.3116 8.016C87.5436 8.016 89.6556 9.72 89.6556 12.432C89.6556 15.024 87.6396 16.776 85.3116 16.776ZM99.3332 4.704C101.085 4.704 102.261 3.576 102.261 1.728H100.917C100.917 2.736 100.317 3.48 99.3332 3.48C98.2532 3.48 97.7252 2.736 97.7252 1.728H96.4292C96.4292 3.312 97.2692 4.704 99.3332 4.704ZM102.861 6.792L96.5732 15.432V6.792H95.0372V18H96.3572L102.765 9.288V18H104.301V6.792H102.861ZM113.299 18.216C114.907 18.216 116.323 17.64 117.331 16.68L116.371 15.648C115.603 16.344 114.547 16.752 113.347 16.752C110.899 16.752 108.907 15 108.907 12.384C108.907 9.744 110.899 8.016 113.347 8.016C114.547 8.016 115.603 8.448 116.371 9.144L117.331 8.088C116.323 7.152 114.907 6.552 113.299 6.552C110.107 6.552 107.371 8.832 107.371 12.384C107.371 15.936 110.107 18.216 113.299 18.216ZM124.946 18.24C128.138 18.24 130.826 15.912 130.826 12.36C130.826 8.808 128.138 6.552 124.946 6.552C121.754 6.552 119.09 8.808 119.09 12.36C119.09 15.912 121.754 18.24 124.946 18.24ZM124.946 16.776C122.57 16.776 120.626 15.024 120.626 12.36C120.626 9.72 122.57 8.016 124.946 8.016C127.298 8.016 129.29 9.72 129.29 12.36C129.29 15.024 127.298 16.776 124.946 16.776ZM139.873 6.552C138.001 6.552 136.225 7.464 135.409 9V6.792H133.873V23.448H135.409V15.816C136.249 17.352 137.977 18.24 139.873 18.24C143.017 18.24 145.561 15.816 145.561 12.408C145.561 9 143.017 6.552 139.873 6.552ZM139.753 16.776C137.521 16.776 135.409 15.072 135.409 12.36C135.409 9.768 137.425 8.016 139.753 8.016C142.129 8.016 144.049 9.936 144.049 12.432C144.049 14.904 142.129 16.776 139.753 16.776ZM154.207 6.552C152.407 6.552 150.727 7.416 149.911 8.616C150.175 5.952 151.519 3.048 156.199 2.592C157.423 2.472 158.311 1.872 158.719 1.056L157.471 0.36C157.087 0.863999 156.823 1.128 155.887 1.224C149.527 1.848 148.207 6.768 148.207 10.968C148.207 16.032 150.583 18.24 154.063 18.24C157.255 18.24 159.943 15.912 159.943 12.36C159.943 8.808 157.255 6.552 154.207 6.552ZM154.063 16.776C151.231 16.776 149.743 14.64 149.743 11.856C149.743 9.792 151.687 8.016 154.063 8.016C156.439 8.016 158.407 9.72 158.407 12.36C158.407 15.024 156.439 16.776 154.063 16.776ZM173.47 12.36C173.47 8.808 171.142 6.552 167.95 6.552C164.782 6.552 162.238 8.808 162.238 12.36C162.238 15.912 164.782 18.24 167.95 18.24C170.062 18.24 171.982 17.232 172.966 15.432L171.646 14.856C170.902 16.08 169.534 16.776 167.998 16.776C165.742 16.776 164.062 15.432 163.798 13.032H173.446C173.47 12.816 173.47 12.576 173.47 12.36ZM163.822 11.712C164.11 9.312 165.742 8.016 167.95 8.016C170.134 8.016 171.742 9.384 171.958 11.712H163.822ZM184.475 6.792V11.736H177.995V6.792H176.459V18H177.995V13.104H184.475V18H186.011V6.792H184.475ZM197.066 6.792H188.426V8.256H191.978V18H193.514V8.256H197.066V6.792Z" fill="currentColor"/>
<defs>
<linearGradient id="paint0_linear" x1="-6.73472e-06" y1="1.00003" x2="35.2328" y2="20.7737" gradientUnits="userSpaceOnUse">
<stop stop-color="#01695A"/>
<stop offset="1" stop-color="#2CC26F"/>
</linearGradient>
</defs>
</svg>
