<?xml version="1.0" standalone="no"?>
<!DOCTYPE svg PUBLIC "-//W3C//DTD SVG 20010904//EN"
 "http://www.w3.org/TR/2001/REC-SVG-20010904/DTD/svg10.dtd">
<svg version="1.0" xmlns="http://www.w3.org/2000/svg"
 width="345.000000pt" height="345.000000pt" viewBox="0 0 345.000000 345.000000"
 preserveAspectRatio="xMidYMid meet">
<metadata>
Created by potrace 1.11, written by Peter Selinger 2001-2013
</metadata>
<g transform="translate(0.000000,345.000000) scale(0.100000,-0.100000)"
fill="#000000" stroke="none">
<path d="M2235 2690 c-3 -5 -11 -8 -16 -4 -5 3 -8 0 -7 -8 2 -7 -3 -12 -9 -10
-7 1 -12 -4 -10 -10 1 -7 -4 -12 -11 -10 -8 1 -11 -1 -8 -6 6 -10 -33 -51 -47
-51 -5 1 -12 -3 -15 -7 -4 -4 0 -3 8 1 8 5 2 -5 -14 -21 -15 -16 -32 -29 -37
-29 -5 0 -9 -4 -10 -10 -1 -17 -41 -55 -52 -48 -6 3 -7 1 -4 -4 8 -13 -17 -36
-27 -25 -4 4 -6 0 -4 -8 2 -8 -3 -14 -10 -12 -8 1 -11 -2 -8 -7 7 -11 -19 -33
-28 -23 -4 4 -6 0 -4 -8 1 -8 -3 -14 -9 -15 -7 0 -13 -4 -14 -10 -1 -17 -41
-55 -52 -48 -6 3 -7 1 -4 -4 8 -13 -17 -36 -27 -25 -4 4 -6 0 -4 -8 2 -8 -3
-14 -10 -12 -8 1 -11 -2 -8 -7 8 -12 -18 -33 -29 -23 -5 4 -5 2 -2 -4 8 -14
-17 -37 -27 -26 -4 4 -6 0 -4 -8 1 -8 -3 -14 -10 -12 -6 1 -11 -4 -10 -10 2
-7 -3 -12 -10 -10 -8 1 -11 -2 -8 -7 7 -11 -19 -33 -28 -23 -4 4 -6 0 -4 -8 2
-8 -3 -14 -10 -12 -8 1 -11 -2 -8 -7 8 -12 -18 -33 -29 -23 -5 4 -5 2 -2 -4 4
-7 0 -17 -8 -24 -8 -7 -15 -9 -16 -4 0 5 -4 -1 -10 -14 -5 -14 -13 -20 -20
-16 -7 4 -9 3 -6 -3 3 -5 -8 -22 -26 -39 -17 -16 -27 -23 -22 -15 5 10 4 12
-4 7 -6 -4 -9 -11 -6 -16 3 -4 -9 -20 -26 -34 -34 -29 -32 -46 4 -29 61 29
118 53 127 53 6 0 18 4 28 10 35 20 197 80 215 80 22 0 49 -24 39 -35 -4 -5
-2 -5 4 -2 14 8 47 -26 37 -37 -5 -4 -3 -6 2 -5 15 5 55 -33 48 -45 -3 -6 -2
-8 2 -3 11 10 46 -23 38 -36 -3 -5 -1 -7 4 -4 13 8 36 -17 25 -28 -4 -5 -2 -5
4 -2 12 7 71 -52 66 -66 -1 -5 2 -6 6 -3 9 5 45 -26 40 -35 -2 -2 -1 -3 1 -2
10 6 30 -20 24 -31 -3 -6 -3 -8 2 -4 11 11 36 -12 28 -25 -3 -5 -2 -7 4 -4 11
7 59 -43 55 -56 -1 -5 2 -6 6 -3 13 8 44 -29 35 -40 -5 -5 -4 -6 1 -2 12 10
38 -11 29 -25 -3 -5 -1 -7 5 -3 6 3 13 2 17 -4 6 -9 1045 -16 1045 -7 0 4
-1112 1118 -1148 1150 -13 12 -22 15 -27 7z"/>
<path d="M692 2071 c-558 -561 -642 -647 -589 -601 15 13 27 20 27 15 0 -5 6
-2 13 7 6 9 62 53 122 97 61 44 115 85 122 91 7 5 15 10 18 10 3 0 14 8 24 18
37 33 51 43 51 35 0 -4 7 3 16 15 8 12 21 22 28 22 8 0 16 7 20 15 3 8 10 15
16 15 6 0 23 11 38 25 15 14 32 25 39 25 7 0 13 3 13 8 0 4 43 39 95 77 53 39
108 80 123 92 15 13 32 23 38 23 7 0 14 7 18 15 3 8 11 15 18 15 7 0 26 14 42
30 16 17 39 30 50 30 13 0 57 -36 116 -95 52 -52 98 -95 101 -95 9 0 339 332
339 340 0 12 -320 325 -332 326 -7 1 -262 -249 -566 -555z"/>
<path d="M425 1278 c-21 -57 -61 -167 -90 -244 l-52 -142 31 0 c30 0 33 3 52
62 l19 61 115 0 115 0 21 -60 c20 -55 24 -60 54 -63 24 -3 31 0 28 10 -3 7
-43 118 -89 245 l-84 233 -41 0 -42 0 -37 -102z m88 15 c2 -10 21 -62 40 -115
l36 -98 -89 0 -89 0 36 98 c19 53 37 105 40 115 3 9 9 17 13 17 4 0 10 -8 13
-17z"/>
<path d="M798 1233 c-2 -82 -2 -192 0 -245 l3 -98 29 0 30 0 0 95 0 95 49 0
49 0 82 -95 c78 -90 84 -95 121 -95 l40 0 -72 83 c-40 45 -81 91 -91 101 -21
23 -23 36 -5 36 21 0 66 53 77 91 23 78 -15 146 -95 168 -22 6 -79 11 -127 11
l-87 0 -3 -147z m209 76 c36 -13 43 -25 43 -74 0 -68 -36 -95 -127 -95 l-63 0
0 90 0 90 59 0 c33 0 72 -5 88 -11z"/>
<path d="M1280 1350 c-1 -16 -1 -86 -1 -155 0 -69 0 -166 1 -216 l0 -90 28 3
27 3 0 213 c-1 116 2 212 5 212 4 0 13 -12 21 -27 7 -16 51 -97 96 -182 46
-85 83 -156 83 -159 0 -2 9 -17 21 -33 16 -22 28 -29 55 -29 l34 0 0 246 0
245 -27 -3 -28 -3 0 -192 c0 -180 -5 -219 -23 -175 -4 9 -49 97 -101 195 l-95
177 -48 0 c-47 0 -48 -1 -48 -30z"/>
<path d="M1770 1355 c0 -21 5 -25 30 -25 l30 0 0 -195 0 -195 -30 0 c-25 0
-30 -4 -30 -24 0 -23 2 -23 95 -24 94 0 95 0 95 24 0 21 -5 24 -34 24 l-35 0
1 195 1 195 32 0 c28 0 33 3 33 25 0 25 -1 25 -94 25 -94 0 -94 0 -94 -25z"/>
<path d="M2070 1135 l0 -245 30 0 30 0 0 83 c0 78 2 85 28 110 l29 27 53 -62
c111 -130 144 -158 186 -158 l38 0 -39 42 c-22 23 -42 45 -45 48 -3 3 -38 42
-78 87 l-74 83 99 101 c54 56 104 108 111 115 11 12 8 14 -23 14 -38 0 -53
-13 -230 -206 -23 -24 -44 -44 -48 -44 -4 0 -7 56 -7 125 l0 125 -30 0 -30 0
0 -245z"/>
<path d="M2660 1377 c0 -1 -40 -111 -89 -245 l-89 -243 31 3 c29 3 34 8 53 63
l21 60 117 3 c100 2 116 0 116 -13 0 -9 7 -32 17 -53 9 -20 17 -41 17 -47 1
-5 16 -11 35 -13 19 -2 32 1 30 7 -2 5 -42 116 -89 245 l-85 236 -42 0 c-24 0
-43 -1 -43 -3z m53 -84 c3 -10 22 -62 41 -115 l35 -98 -89 0 -88 0 35 98 c19
53 38 105 40 115 3 9 9 17 13 17 4 0 10 -8 13 -17z"/>
</g>
</svg>
